<svg width="410" height="98" viewBox="0 0 410 98" fill="none" xmlns="http://www.w3.org/2000/svg">
<path d="M136.369 21.996C136.345 21.4362 136.444 20.8777 136.659 20.3558C136.873 19.8339 137.2 19.3599 137.618 18.9637C138.035 18.5675 138.535 18.2576 139.085 18.0537C139.635 17.8497 140.223 17.7561 140.813 17.7787H162.778C168.149 17.7787 172.407 19.3728 175.551 22.5612C178.695 25.7495 180.265 30.0807 180.262 35.5548C180.262 42.2154 177.549 46.8995 172.124 49.607V49.86C174.423 50.9312 176.321 52.6442 177.564 54.769C178.826 56.9171 179.458 59.5136 179.458 62.5585V70.601C179.458 72.9121 178.717 74.689 177.235 75.9317C175.754 77.1744 173.626 77.7944 170.853 77.7915V63.0519C170.853 56.6219 168.194 53.4054 162.875 53.4026H144.906V70.5883C144.906 75.3849 142.061 77.7831 136.369 77.7831V21.996ZM162.395 45.6132C165.24 45.6132 167.481 44.7107 169.12 42.9056C170.758 41.1006 171.579 38.618 171.582 35.4578C171.582 32.2414 170.803 29.7995 169.244 28.1323C167.686 26.465 165.403 25.6328 162.395 25.6356H144.906V45.6132H162.395Z" fill="#FFFCFC"/>
<path d="M202.884 75.029C199.405 73.2809 196.504 70.6535 194.502 67.4378C192.485 64.2118 191.44 60.5227 191.48 56.7721V37.794C191.431 34.069 192.478 30.4048 194.502 27.2127C196.529 24.0404 199.426 21.4502 202.884 19.7185C206.614 17.9111 210.743 16.9688 214.931 16.9688C219.119 16.9688 223.247 17.9111 226.977 19.7185C230.441 21.455 233.348 24.0435 235.395 27.2127C237.445 30.3961 238.506 34.0638 238.457 37.794V56.7721C238.499 60.5281 237.439 64.221 235.395 67.4378C233.372 70.65 230.461 73.2754 226.977 75.029C223.248 76.839 219.119 77.7829 214.931 77.7829C210.742 77.7829 206.613 76.839 202.884 75.029V75.029ZM225.929 66.2696C228.595 63.8994 229.929 60.7111 229.929 56.7046V37.9965C229.929 33.99 228.595 30.8017 225.929 28.4315C223.262 26.0614 219.595 24.8763 214.929 24.8763C210.259 24.8763 206.594 26.0614 203.933 28.4315C201.272 30.8017 199.939 33.99 199.933 37.9965V56.7046C199.933 60.7111 201.266 63.8994 203.933 66.2696C206.6 68.6397 210.265 69.8248 214.929 69.8248C219.604 69.8248 223.271 68.6397 225.929 66.2696Z" fill="#FFFCFC"/>
<path d="M261.182 74.9882C257.759 73.1923 254.918 70.5443 252.964 67.3295C250.949 63.9953 249.919 60.2074 249.982 56.3644V24.1987C249.982 21.8876 250.735 20.1107 252.24 18.868C253.745 17.6253 255.893 17.0039 258.684 17.0039V56.3644C258.684 60.3737 259.986 63.607 262.591 66.0643C265.195 68.5216 268.647 69.7489 272.946 69.7461C277.243 69.7461 280.695 68.5188 283.302 66.0643C285.909 63.6098 287.212 60.3765 287.209 56.3644V24.1987C287.209 21.8286 287.949 20.0376 289.431 18.8258C290.912 17.614 293.074 17.0067 295.915 17.0039V56.3644C295.972 60.22 294.942 64.02 292.933 67.3717C290.996 70.5986 288.15 73.2504 284.715 75.0304C281.108 76.8965 277.054 77.848 272.946 77.7927C268.834 77.8475 264.779 76.8806 261.182 74.9882V74.9882Z" fill="#FFFCFC"/>
<path d="M328.222 74.8399L307.515 17.8508C308.084 17.5935 308.68 17.3942 309.293 17.2562C309.897 17.0999 310.52 17.0149 311.146 17.0032C312.661 16.9584 314.148 17.3899 315.377 18.2304C316.562 19.1049 317.438 20.3008 317.888 21.6591L331.911 62.715L330.297 67.3541L331.026 67.6071L346.777 21.6591C347.24 20.2897 348.141 19.0912 349.355 18.2304C350.601 17.3932 352.1 16.9625 353.626 17.0032C354.909 17.0477 356.169 17.3345 357.333 17.8466L336.604 74.8399C336.338 75.7229 335.77 76.4971 334.991 77.0413C334.211 77.5603 333.276 77.8279 332.324 77.8046C330.339 77.7962 328.971 76.8079 328.222 74.8399Z" fill="#FFFCFC"/>
<path d="M367.622 21.9958C367.617 21.4407 367.729 20.8903 367.95 20.3766C368.172 19.8629 368.499 19.3962 368.913 19.0037C369.327 18.6112 369.818 18.3007 370.36 18.0903C370.901 17.88 371.481 17.774 372.066 17.7785H407.84C407.84 20.486 407.343 22.4752 406.351 23.746C405.358 25.0168 403.813 25.6508 401.715 25.648H376.324V43.1711H398.484C398.484 45.8815 398.001 47.8706 397.035 49.1387C396.069 50.4067 394.537 51.0421 392.44 51.0449H376.324V69.1458H403.4C405.441 69.1458 406.958 69.7812 407.951 71.052C408.943 72.3228 409.441 74.312 409.444 77.0195H372.057C371.472 77.0302 370.891 76.9268 370.35 76.7157C369.809 76.5046 369.319 76.1903 368.911 75.7923C368.492 75.4006 368.161 74.9319 367.94 74.4149C367.718 73.8979 367.61 73.3434 367.622 72.7853V21.9958Z" fill="#FFFCFC"/>
<path d="M0.555298 64.6679V34.1934C7.31429 34.1977 13.996 35.5574 20.1625 38.1833C26.329 40.8092 31.8411 44.6421 36.3375 49.4306C31.8485 54.2278 26.3379 58.0665 20.1697 60.6931C14.0015 63.3198 7.31613 64.6745 0.555298 64.6679Z" fill="#BF021F"/>
<path d="M0.555542 27.6515L14.4311 0.192383C21.7712 3.55027 28.0862 8.63099 32.7778 14.9531C34.8558 17.7475 36.5985 20.7534 37.9733 23.915C38.6611 25.483 39.2546 27.0867 39.7511 28.7185C38.1062 29.371 36.4234 29.9343 34.7111 30.4055C23.36 33.5386 11.1868 32.5571 0.555542 27.6515V27.6515Z" fill="#BF021F"/>
<path d="M16.9553 96.9385L0.555298 70.791C5.23113 68.1284 10.3523 66.2443 15.6975 65.2199C23.6056 63.7145 31.7857 64.1221 39.4842 66.4049C39.1468 68.0717 38.7105 69.7191 38.1775 71.3392C37.1035 74.6043 35.6501 77.7458 33.8442 80.706C29.7635 87.3957 23.9503 92.986 16.9553 96.947V96.9385Z" fill="#BF021F"/>
<path d="M112.556 34.0869V64.5615C105.797 64.5571 99.1149 63.1974 92.9484 60.5715C86.7819 57.9456 81.2698 54.1128 76.7734 49.3242C81.2631 44.5279 86.7739 40.6897 92.942 38.0632C99.11 35.4366 105.795 34.0814 112.556 34.0869Z" fill="#BF021F"/>
<path d="M98.6975 0.192383L112.555 27.6515C101.924 32.5375 89.7599 33.5082 78.4175 30.3759C76.7035 29.9054 75.0192 29.3422 73.373 28.689C74.8733 23.7724 77.2319 19.1293 80.3508 14.9531C85.0424 8.63098 91.3574 3.55027 98.6975 0.192383V0.192383Z" fill="#BF021F"/>
<path d="M112.555 71.043L96.1727 97.1905C91.4887 94.5329 87.3163 91.1371 83.8349 87.149C82.1386 85.2058 80.6177 83.1306 79.2882 80.9453C77.4771 77.9877 76.0234 74.8455 74.9549 71.5785C74.4125 69.9605 73.9673 68.3145 73.6216 66.6485C75.3225 66.1343 77.0526 65.7119 78.8038 65.3833C82.3321 64.7309 85.9265 64.4565 89.5194 64.5651C97.6545 64.8245 105.584 67.0544 112.555 71.043V71.043Z" fill="#BF021F"/>
<path d="M72.555 49.4311C72.5602 54.6204 71.6359 59.7729 69.8217 64.6683C68.9388 67.0491 67.8475 69.3556 66.5594 71.5637C64.8186 74.5551 62.7316 77.3531 60.3372 79.9056C59.1502 81.1711 57.8889 82.3722 56.5594 83.503C55.2299 82.3722 53.9687 81.1711 52.7816 79.9056C50.3858 77.3542 48.2987 74.5561 46.5594 71.5637C45.2713 69.3556 44.1801 67.0491 43.2972 64.6683C39.6456 54.8056 39.6456 44.0565 43.2972 34.1938C44.1801 31.813 45.2713 29.5065 46.5594 27.2984C48.2987 24.306 50.3858 21.5079 52.7816 18.9565C53.9677 17.6969 55.2275 16.5015 56.555 15.376C57.8845 16.5068 59.1457 17.7078 60.3328 18.9734C62.7271 21.5259 64.8141 24.3238 66.555 27.3153C67.8431 29.5234 68.9343 31.8299 69.8172 34.2107C71.6313 39.1005 72.5571 44.2471 72.555 49.4311V49.4311Z" fill="#BF021F"/>
</svg>
