<svg width="18" height="18" viewBox="0 0 18 18" fill="none" xmlns="http://www.w3.org/2000/svg">
<rect width="18" height="18" fill="#BF021F"/>
<path d="M6.48879 11.6414L13.8969 3.38484C14.1271 3.12828 14.42 3 14.7758 3C15.1315 3 15.4245 3.12828 15.6547 3.38484C15.8849 3.6414 16 3.96793 16 4.36443C16 4.76093 15.8849 5.08746 15.6547 5.34402L7.36771 14.5802C7.11659 14.8601 6.82362 15 6.48879 15C6.15396 15 5.86099 14.8601 5.60987 14.5802L2.34529 10.9417C2.1151 10.6851 2 10.3586 2 9.9621C2 9.5656 2.1151 9.23907 2.34529 8.98251C2.57549 8.72595 2.86846 8.59767 3.22422 8.59767C3.57997 8.59767 3.87294 8.72595 4.10314 8.98251L6.48879 11.6414Z" fill="white"/>
</svg>
