<svg width="307" height="77" viewBox="0 0 307 77" fill="none" xmlns="http://www.w3.org/2000/svg">
<path d="M102.027 17.3999C102.009 16.9574 102.083 16.516 102.244 16.1035C102.405 15.691 102.65 15.3163 102.963 15.0032C103.276 14.69 103.651 14.4451 104.063 14.2839C104.476 14.1227 104.917 14.0487 105.36 14.0666H121.833C125.862 14.0666 129.055 15.3266 131.413 17.8466C133.771 20.3666 134.949 23.7899 134.947 28.1166C134.947 33.381 132.912 37.0832 128.843 39.2232V39.4232C130.567 40.2699 131.991 41.6238 132.923 43.3032C133.87 45.001 134.343 47.0532 134.343 49.4599V55.8166C134.343 57.6432 133.788 59.0477 132.677 60.0299C131.565 61.0121 129.97 61.5021 127.89 61.4999V49.8499C127.89 44.7677 125.895 42.2255 121.907 42.2232H108.43V55.8066C108.43 59.5977 106.295 61.4933 102.027 61.4933V17.3999ZM121.547 36.0666C123.68 36.0666 125.361 35.3532 126.59 33.9266C127.819 32.4999 128.434 30.5377 128.437 28.0399C128.437 25.4977 127.852 23.5677 126.683 22.2499C125.514 20.9321 123.802 20.2744 121.547 20.2766H108.43V36.0666H121.547Z" fill="#FFFCFC"/>
<path d="M151.913 59.3163C149.304 57.9346 147.128 55.858 145.626 53.3163C144.114 50.7665 143.33 47.8507 143.36 44.8863V29.8863C143.323 26.9421 144.108 24.046 145.626 21.523C147.147 19.0156 149.32 16.9683 151.913 15.5996C154.71 14.1711 157.807 13.4263 160.948 13.4263C164.089 13.4263 167.185 14.1711 169.983 15.5996C172.581 16.9722 174.761 19.0181 176.296 21.523C177.834 24.0391 178.63 26.9379 178.593 29.8863V44.8863C178.624 47.855 177.829 50.7738 176.296 53.3163C174.779 55.8552 172.596 57.9303 169.983 59.3163C167.186 60.7469 164.089 61.4929 160.948 61.4929C157.806 61.4929 154.71 60.7469 151.913 59.3163ZM169.196 52.393C171.196 50.5196 172.196 47.9996 172.196 44.833V30.0463C172.196 26.8796 171.196 24.3596 169.196 22.4863C167.196 20.613 164.446 19.6763 160.946 19.6763C157.444 19.6763 154.695 20.613 152.7 22.4863C150.704 24.3596 149.704 26.8796 149.7 30.0463V44.833C149.7 47.9996 150.7 50.5196 152.7 52.393C154.7 54.2663 157.449 55.203 160.946 55.203C164.453 55.203 167.203 54.2663 169.196 52.393Z" fill="#FFFCFC"/>
<path d="M195.636 59.2841C193.069 57.8647 190.938 55.7717 189.473 53.2308C187.962 50.5955 187.189 47.6015 187.236 44.5641V19.1408C187.236 17.3141 187.801 15.9097 188.93 14.9274C190.059 13.9452 191.67 13.4541 193.763 13.4541V44.5641C193.763 47.733 194.74 50.2885 196.693 52.2308C198.646 54.173 201.235 55.143 204.46 55.1408C207.682 55.1408 210.271 54.1708 212.226 52.2308C214.182 50.2908 215.159 47.7352 215.156 44.5641V19.1408C215.156 17.2674 215.712 15.8519 216.823 14.8941C217.934 13.9363 219.555 13.4563 221.686 13.4541V44.5641C221.729 47.6115 220.957 50.615 219.45 53.2641C217.997 55.8146 215.863 57.9105 213.286 59.3174C210.581 60.7924 207.541 61.5444 204.46 61.5008C201.376 61.544 198.334 60.7799 195.636 59.2841Z" fill="#FFFCFC"/>
<path d="M245.916 59.167L230.386 14.1237C230.813 13.9203 231.26 13.7628 231.72 13.6537C232.173 13.5301 232.64 13.4629 233.11 13.4537C234.245 13.4183 235.361 13.7593 236.283 14.4237C237.171 15.1149 237.828 16.0601 238.166 17.1337L248.683 49.5837L247.473 53.2503L248.02 53.4503L259.833 17.1337C260.18 16.0513 260.856 15.104 261.766 14.4237C262.701 13.7619 263.825 13.4215 264.97 13.4537C265.931 13.4889 266.876 13.7156 267.75 14.1203L252.203 59.167C252.003 59.8649 251.578 60.4769 250.993 60.907C250.408 61.3172 249.707 61.5287 248.993 61.5103C247.504 61.5037 246.478 60.7226 245.916 59.167Z" fill="#FFFCFC"/>
<path d="M275.466 17.3998C275.463 16.9611 275.546 16.5261 275.713 16.12C275.879 15.714 276.124 15.3451 276.435 15.0349C276.745 14.7247 277.114 14.4793 277.52 14.313C277.926 14.1468 278.361 14.063 278.8 14.0665H305.63C305.63 16.2065 305.257 17.7787 304.513 18.7832C303.768 19.7876 302.61 20.2887 301.036 20.2865H281.993V34.1365H298.613C298.613 36.2787 298.251 37.851 297.526 38.8532C296.802 39.8554 295.653 40.3576 294.08 40.3598H281.993V54.6665H302.3C303.831 54.6665 304.968 55.1687 305.713 56.1732C306.457 57.1776 306.831 58.7499 306.833 60.8899H278.793C278.354 60.8983 277.918 60.8165 277.512 60.6497C277.106 60.4828 276.739 60.2344 276.433 59.9199C276.119 59.6103 275.871 59.2398 275.705 58.8312C275.538 58.4225 275.457 57.9843 275.466 57.5432V17.3998Z" fill="#FFFCFC"/>
<path d="M0.166504 51.1267V27.04C5.23574 27.0435 10.247 28.1182 14.8719 30.1936C19.4968 32.2691 23.6309 35.2986 27.0032 39.0834C23.6364 42.875 19.5035 45.909 14.8773 47.9851C10.2512 50.0611 5.23713 51.1319 0.166504 51.1267Z" fill="#BF021F"/>
<path d="M0.166748 21.8698L10.5734 0.166504C16.0785 2.82054 20.8148 6.83626 24.3334 11.8332C25.892 14.0418 27.199 16.4177 28.2301 18.9165C28.7459 20.1559 29.1911 21.4234 29.5634 22.7132C28.3297 23.2289 27.0677 23.6741 25.7834 24.0465C17.2701 26.5229 8.14022 25.7471 0.166748 21.8698Z" fill="#BF021F"/>
<path d="M12.4665 76.6334L0.166504 55.9667C3.67338 53.8623 7.51428 52.3731 11.5232 51.5634C17.4542 50.3736 23.5893 50.6957 29.3632 52.5001C29.1101 53.8175 28.7829 55.1195 28.3832 56.4001C27.5777 58.9807 26.4876 61.4638 25.1332 63.8034C22.0727 69.0909 17.7127 73.5094 12.4665 76.6401V76.6334Z" fill="#BF021F"/>
<path d="M84.1667 26.9566V51.0432C79.0975 51.0398 74.0862 49.9651 69.4613 47.8896C64.8364 45.8141 60.7024 42.7847 57.3301 38.9999C60.6974 35.2089 64.8304 32.1753 69.4565 30.0993C74.0825 28.0233 79.0963 26.9522 84.1667 26.9566Z" fill="#BF021F"/>
<path d="M73.7731 0.166504L84.1665 21.8698C76.1926 25.7316 67.0699 26.4989 58.5631 24.0232C57.2776 23.6513 56.0144 23.2061 54.7798 22.6898C55.905 18.8038 57.674 15.134 60.0131 11.8332C63.5318 6.83626 68.268 2.82054 73.7731 0.166504Z" fill="#BF021F"/>
<path d="M84.1661 56.1661L71.8794 76.8328C68.3664 74.7322 65.2371 72.0482 62.6261 68.8961C61.3538 67.3602 60.2131 65.72 59.2161 63.9928C57.8577 61.6551 56.7675 59.1716 55.9661 56.5894C55.5592 55.3105 55.2254 54.0095 54.9661 52.6928C56.2417 52.2864 57.5393 51.9525 58.8527 51.6928C61.499 51.1772 64.1948 50.9602 66.8894 51.0461C72.9908 51.2511 78.9382 53.0136 84.1661 56.1661Z" fill="#BF021F"/>
<path d="M54.1663 39.0837C54.1702 43.1853 53.477 47.2577 52.1163 51.127C51.4542 53.0087 50.6357 54.8317 49.6697 56.577C48.364 58.9414 46.7988 61.1528 45.003 63.1703C44.1127 64.1706 43.1668 65.1199 42.1697 66.0137C41.1725 65.1199 40.2266 64.1706 39.3363 63.1703C37.5394 61.1537 35.9741 58.9422 34.6697 56.577C33.7036 54.8317 32.8852 53.0087 32.223 51.127C29.4843 43.3317 29.4843 34.8357 32.223 27.0403C32.8852 25.1586 33.7036 23.3356 34.6697 21.5903C35.9741 19.2252 37.5394 17.0136 39.3363 14.997C40.2259 14.0014 41.1707 13.0566 42.1663 12.167C43.1635 13.0608 44.1094 14.0101 44.9997 15.0103C46.7955 17.0278 48.3607 19.2393 49.6663 21.6037C50.6324 23.3489 51.4508 25.172 52.113 27.0537C53.4736 30.9185 54.1679 34.9863 54.1663 39.0837Z" fill="#BF021F"/>
</svg>
