<svg width="25" height="21" viewBox="0 0 25 21" fill="none" xmlns="http://www.w3.org/2000/svg">
<path d="M25.0002 2.76479C24.0829 3.18172 23.0942 3.4557 22.0697 3.58674C23.118 2.95539 23.9281 1.95475 24.3093 0.751606C23.3205 1.34722 22.2246 1.76415 21.0691 2.0024C20.128 0.977941 18.8058 0.382324 17.3048 0.382324C14.5054 0.382324 12.2182 2.66949 12.2182 5.49271C12.2182 5.89773 12.2659 6.29084 12.3493 6.66012C8.1085 6.4457 4.33229 4.40869 1.81879 1.3234C1.37803 2.07387 1.12787 2.95539 1.12787 3.88455C1.12787 5.65948 2.0213 7.23191 3.40313 8.12534C2.55735 8.12534 1.77114 7.88709 1.08023 7.52972V7.56546C1.08023 10.0432 2.84325 12.116 5.17807 12.5805C4.42845 12.7857 3.64149 12.8142 2.87899 12.6639C3.20253 13.6794 3.83619 14.568 4.69087 15.2047C5.54556 15.8415 6.5783 16.1944 7.64392 16.2138C5.83757 17.6438 3.59849 18.4168 1.29465 18.4057C0.889628 18.4057 0.484609 18.3818 0.0795898 18.3342C2.34293 19.7875 5.03512 20.6333 7.9179 20.6333C17.3048 20.6333 22.4629 12.8426 22.4629 6.08833C22.4629 5.86199 22.4628 5.64757 22.4509 5.42124C23.4516 4.7065 24.3093 3.80116 25.0002 2.76479Z" fill="white"/>
</svg>
