<svg width="25" height="24" viewBox="0 0 25 24" fill="none" xmlns="http://www.w3.org/2000/svg">
<path d="M23.1977 0H2.01364C1.66428 0.00259756 1.32997 0.142532 1.08293 0.389573C0.835892 0.636613 0.695957 0.970925 0.693359 1.32028V22.5044C0.695957 22.8537 0.835892 23.188 1.08293 23.4351C1.32997 23.6821 1.66428 23.8221 2.01364 23.8247H13.4197V14.6125H10.3225V11.009H13.4197V8.35848C13.4197 5.28113 15.2959 3.60348 18.0556 3.60348C18.9788 3.60348 19.902 3.60348 20.8252 3.74246V6.94886H18.9291C17.4302 6.94886 17.1423 7.6636 17.1423 8.70592V10.999H20.716L20.2494 14.6025H17.1423V23.8247H23.1977C23.5471 23.8221 23.8814 23.6821 24.1284 23.4351C24.3755 23.188 24.5154 22.8537 24.518 22.5044V1.32028C24.5154 0.970925 24.3755 0.636613 24.1284 0.389573C23.8814 0.142532 23.5471 0.00259756 23.1977 0Z" fill="white"/>
</svg>
