<svg width="24" height="24" viewBox="0 0 24 24" fill="none" xmlns="http://www.w3.org/2000/svg">
<path d="M6.90915 0H16.9155C20.7274 0 23.8247 3.0972 23.8247 6.90915V16.9155C23.8247 18.7479 23.0967 20.5053 21.801 21.801C20.5053 23.0967 18.7479 23.8247 16.9155 23.8247H6.90915C3.0972 23.8247 0 20.7274 0 16.9155V6.90915C0 5.07673 0.727926 3.31936 2.02364 2.02364C3.31936 0.727926 5.07673 0 6.90915 0ZM6.6709 2.38247C5.53354 2.38247 4.44276 2.83428 3.63852 3.63852C2.83428 4.44276 2.38247 5.53354 2.38247 6.6709V17.1537C2.38247 19.5243 4.30035 21.4422 6.6709 21.4422H17.1537C18.2911 21.4422 19.3819 20.9904 20.1861 20.1861C20.9904 19.3819 21.4422 18.2911 21.4422 17.1537V6.6709C21.4422 4.30035 19.5243 2.38247 17.1537 2.38247H6.6709ZM18.1663 4.16931C18.5612 4.16931 18.94 4.32619 19.2192 4.60544C19.4985 4.88469 19.6553 5.26344 19.6553 5.65835C19.6553 6.05327 19.4985 6.43202 19.2192 6.71127C18.94 6.99051 18.5612 7.1474 18.1663 7.1474C17.7714 7.1474 17.3926 6.99051 17.1134 6.71127C16.8341 6.43202 16.6773 6.05327 16.6773 5.65835C16.6773 5.26344 16.8341 4.88469 17.1134 4.60544C17.3926 4.32619 17.7714 4.16931 18.1663 4.16931ZM11.9123 5.95616C13.492 5.95616 15.007 6.58369 16.124 7.70068C17.241 8.81768 17.8685 10.3327 17.8685 11.9123C17.8685 13.492 17.241 15.007 16.124 16.124C15.007 17.241 13.492 17.8685 11.9123 17.8685C10.3327 17.8685 8.81768 17.241 7.70068 16.124C6.58369 15.007 5.95616 13.492 5.95616 11.9123C5.95616 10.3327 6.58369 8.81768 7.70068 7.70068C8.81768 6.58369 10.3327 5.95616 11.9123 5.95616ZM11.9123 8.33863C10.9645 8.33863 10.0555 8.71514 9.38534 9.38534C8.71514 10.0555 8.33863 10.9645 8.33863 11.9123C8.33863 12.8601 8.71514 13.7691 9.38534 14.4393C10.0555 15.1095 10.9645 15.486 11.9123 15.486C12.8601 15.486 13.7691 15.1095 14.4393 14.4393C15.1095 13.7691 15.486 12.8601 15.486 11.9123C15.486 10.9645 15.1095 10.0555 14.4393 9.38534C13.7691 8.71514 12.8601 8.33863 11.9123 8.33863Z" fill="white"/>
</svg>
