<svg width="25" height="24" viewBox="0 0 25 24" fill="none" xmlns="http://www.w3.org/2000/svg">
<path d="M21.5637 0C22.2658 0 22.9391 0.278899 23.4355 0.775342C23.932 1.27179 24.2109 1.94511 24.2109 2.64718V21.1775C24.2109 21.8795 23.932 22.5529 23.4355 23.0493C22.9391 23.5458 22.2658 23.8246 21.5637 23.8246H3.03341C2.33134 23.8246 1.65802 23.5458 1.16157 23.0493C0.665129 22.5529 0.38623 21.8795 0.38623 21.1775V2.64718C0.38623 1.94511 0.665129 1.27179 1.16157 0.775342C1.65802 0.278899 2.33134 0 3.03341 0H21.5637ZM20.9019 20.5157V13.5006C20.9019 12.3562 20.4473 11.2587 19.6381 10.4495C18.8289 9.64033 17.7314 9.18573 16.587 9.18573C15.4619 9.18573 14.1516 9.87399 13.5163 10.9064V9.43721H9.82344V20.5157H13.5163V13.9904C13.5163 12.9712 14.3369 12.1373 15.3561 12.1373C15.8475 12.1373 16.3188 12.3326 16.6663 12.6801C17.0139 13.0276 17.2091 13.4989 17.2091 13.9904V20.5157H20.9019ZM5.52177 7.35917C6.11151 7.35917 6.6771 7.1249 7.09411 6.70788C7.51113 6.29087 7.7454 5.72528 7.7454 5.13554C7.7454 3.9046 6.75271 2.89867 5.52177 2.89867C4.92851 2.89867 4.35955 3.13434 3.94006 3.55383C3.52057 3.97332 3.2849 4.54228 3.2849 5.13554C3.2849 6.36648 4.29083 7.35917 5.52177 7.35917ZM7.36156 20.5157V9.43721H3.69521V20.5157H7.36156Z" fill="white"/>
</svg>
