<svg width="47" height="42" viewBox="0 0 47 42" fill="none" xmlns="http://www.w3.org/2000/svg">
<path d="M0.314819 27.7344V14.8882C3.13106 14.89 5.91511 15.4632 8.4845 16.5701C11.0539 17.677 13.3506 19.2927 15.2241 21.3113C13.3537 23.3335 11.0576 24.9516 8.48749 26.0589C5.9174 27.1661 3.13183 27.7372 0.314819 27.7344Z" fill="#BF021F"/>
<path d="M0.314819 12.1307L6.0963 0.555569C9.15469 1.97105 11.7859 4.11277 13.7407 6.77779C14.6066 7.95575 15.3327 9.22286 15.9056 10.5556C16.1921 11.2166 16.4394 11.8926 16.6463 12.5805C15.9609 12.8555 15.2598 13.0929 14.5463 13.2916C9.81666 14.6123 4.74452 14.1986 0.314819 12.1307Z" fill="#BF021F"/>
<path d="M7.14815 41.3378L0.314819 30.3156C2.26308 29.1932 4.39692 28.399 6.62408 27.9671C9.9191 27.3326 13.3275 27.5044 16.5352 28.4667C16.3946 29.1693 16.2128 29.8637 15.9907 30.5467C15.5432 31.923 14.9377 33.2473 14.1852 34.4951C12.4849 37.3151 10.0627 39.6716 7.14815 41.3414V41.3378Z" fill="#BF021F"/>
<path d="M46.9817 14.8435V27.6897C44.1654 27.6879 41.3814 27.1147 38.812 26.0078C36.2426 24.9009 33.9459 23.2852 32.0724 21.2666C33.9431 19.2448 36.2393 17.6269 38.8093 16.5197C41.3793 15.4125 44.1647 14.8412 46.9817 14.8435Z" fill="#BF021F"/>
<path d="M41.2073 0.555569L46.9814 12.1307C42.5515 14.1903 37.4833 14.5995 32.7573 13.2791C32.0431 13.0808 31.3414 12.8434 30.6555 12.568C31.2806 10.4955 32.2633 8.53824 33.5629 6.77779C35.5177 4.11277 38.1489 1.97105 41.2073 0.555569Z" fill="#BF021F"/>
<path d="M46.9813 30.4221L40.1554 41.4443C38.2037 40.324 36.4652 38.8926 35.0146 37.2114C34.3078 36.3923 33.6741 35.5175 33.1202 34.5963C32.3655 33.3496 31.7598 32.025 31.3146 30.6479C31.0886 29.9658 30.9031 29.2719 30.7591 28.5696C31.4678 28.3529 32.1887 28.1748 32.9183 28.0363C34.3885 27.7613 35.8861 27.6456 37.3831 27.6914C40.7728 27.8008 44.0769 28.7408 46.9813 30.4221Z" fill="#BF021F"/>
<path d="M30.3147 21.311C30.3169 23.4986 29.9318 25.6705 29.1758 27.7342C28.808 28.7377 28.3533 29.71 27.8166 30.6408C27.0912 31.9018 26.2216 33.0813 25.224 34.1573C24.7294 34.6907 24.2039 35.197 23.6499 35.6737C23.096 35.197 22.5704 34.6907 22.0758 34.1573C21.0776 33.0817 20.2079 31.9022 19.4832 30.6408C18.9465 29.71 18.4919 28.7377 18.124 27.7342C16.6025 23.5766 16.6025 19.0454 18.124 14.8879C18.4919 13.8844 18.9465 12.9121 19.4832 11.9813C20.2079 10.7199 21.0776 9.54035 22.0758 8.46483C22.57 7.93384 23.0949 7.42993 23.6481 6.95549C24.202 7.43218 24.7275 7.93847 25.2221 8.47194C26.2198 9.54793 27.0894 10.7274 27.8147 11.9884C28.3514 12.9192 28.8061 13.8915 29.174 14.895C29.9299 16.9563 30.3156 19.1258 30.3147 21.311Z" fill="#BF021F"/>
</svg>
