<svg width="115" height="27" viewBox="0 0 115 27" fill="none" xmlns="http://www.w3.org/2000/svg">
<path d="M0.903792 2.74657C0.893873 2.51056 0.934991 2.27514 1.02455 2.05514C1.1141 1.83514 1.25015 1.63533 1.42413 1.46831C1.59811 1.30129 1.80624 1.17068 2.03541 1.08471C2.26457 0.998738 2.5098 0.959268 2.75564 0.96879H11.9075C14.1458 0.96879 15.9198 1.64079 17.2297 2.98479C18.5396 4.32879 19.1939 6.15457 19.1927 8.46212C19.1927 11.2698 18.0624 13.2443 15.8019 14.3857V14.4923C16.7598 14.9439 17.5508 15.666 18.0686 16.5617C18.5945 17.4672 18.8575 18.5617 18.8575 19.8452V23.2355C18.8575 24.2097 18.5489 24.9587 17.9316 25.4826C17.3143 26.0064 16.4279 26.2678 15.2723 26.2666V20.0532C15.2723 17.3427 14.1643 15.9869 11.9482 15.9857H4.4612V23.2301C4.4612 25.2521 3.2754 26.263 0.903792 26.263V2.74657ZM11.7482 12.7021C12.9334 12.7021 13.8674 12.3217 14.5501 11.5608C15.2328 10.7999 15.5748 9.75338 15.576 8.42123C15.576 7.06538 15.2513 6.03605 14.6019 5.33323C13.9526 4.63042 13.0013 4.27961 11.7482 4.28079H4.4612V12.7021H11.7482Z" fill="#FFFCFC"/>
<path d="M28.6186 25.1021C27.1691 24.3651 25.9603 23.2576 25.126 21.9021C24.2858 20.5422 23.8502 18.9871 23.8667 17.406V9.40605C23.8466 7.83579 24.2826 6.2912 25.126 4.94561C25.9707 3.60836 27.1778 2.51646 28.6186 1.78649C30.1727 1.02461 31.8929 0.627369 33.638 0.627369C35.3831 0.627369 37.1033 1.02461 38.6575 1.78649C40.1005 2.51852 41.312 3.60966 42.1649 4.94561C43.0189 6.28753 43.4612 7.83359 43.4408 9.40605V17.406C43.4582 18.9893 43.0164 20.546 42.1649 21.9021C41.322 23.2561 40.109 24.3628 38.6575 25.1021C37.1036 25.8651 35.3833 26.2629 33.638 26.2629C31.8927 26.2629 30.1724 25.8651 28.6186 25.1021ZM38.2204 21.4096C39.3315 20.4105 39.8871 19.0665 39.8871 17.3776V9.49138C39.8871 7.8025 39.3315 6.45849 38.2204 5.45938C37.1093 4.46027 35.5815 3.96072 33.6371 3.96072C31.6914 3.96072 30.1642 4.46027 29.0556 5.45938C27.947 6.45849 27.3914 7.8025 27.3889 9.49138V17.3776C27.3889 19.0665 27.9445 20.4105 29.0556 21.4096C30.1667 22.4087 31.6939 22.9083 33.6371 22.9083C35.5852 22.9083 37.113 22.4087 38.2204 21.4096Z" fill="#FFFCFC"/>
<path d="M52.9093 25.0845C51.4832 24.3275 50.2993 23.2113 49.4852 21.8561C48.6457 20.4506 48.2165 18.8538 48.2426 17.2339V3.67476C48.2426 2.70054 48.5562 1.95151 49.1833 1.42765C49.8105 0.903802 50.7056 0.641876 51.8685 0.641876V17.2339C51.8685 18.924 52.4111 20.2869 53.4963 21.3228C54.5815 22.3586 56.0198 22.876 57.8111 22.8748C59.6013 22.8748 61.0395 22.3574 62.1259 21.3228C63.2124 20.2881 63.7549 18.9251 63.7537 17.2339V3.67476C63.7537 2.67565 64.0624 1.92069 64.6796 1.40987C65.2969 0.89906 66.1975 0.643061 67.3815 0.641876V17.2339C67.4051 18.8592 66.9761 20.461 66.1389 21.8739C65.3316 23.2341 64.1461 24.352 62.7148 25.1023C61.2118 25.889 59.5228 26.29 57.8111 26.2668C56.0977 26.2898 54.4079 25.8823 52.9093 25.0845Z" fill="#FFFCFC"/>
<path d="M80.8426 25.0222L72.2148 0.999054C72.4518 0.890592 72.7001 0.806569 72.9555 0.748389C73.2074 0.682484 73.4668 0.646657 73.7278 0.641722C74.3587 0.622852 74.9785 0.80473 75.4907 1.15906C75.9842 1.52769 76.3492 2.03181 76.537 2.60439L82.3796 19.9111L81.7074 21.8666L82.0111 21.9733L88.574 2.60439C88.7668 2.02713 89.1423 1.52192 89.6481 1.15906C90.1673 0.806136 90.7918 0.624589 91.4277 0.641722C91.9621 0.660517 92.4871 0.781391 92.9722 0.997277L84.3352 25.0222C84.2242 25.3944 83.9878 25.7208 83.6629 25.9502C83.338 26.1689 82.9485 26.2817 82.5518 26.2719C81.7247 26.2684 81.1549 25.8518 80.8426 25.0222Z" fill="#FFFCFC"/>
<path d="M97.2592 2.74672C97.2572 2.51273 97.3037 2.28071 97.3961 2.06416C97.4885 1.84762 97.6248 1.65088 97.7972 1.48542C97.9695 1.31996 98.1744 1.18908 98.4 1.10041C98.6256 1.01174 98.8673 0.96705 99.111 0.968945H114.017C114.017 2.11028 113.81 2.9488 113.396 3.4845C112.983 4.02021 112.339 4.28746 111.465 4.28628H100.885V11.6729H110.118C110.118 12.8155 109.917 13.654 109.515 14.1885C109.112 14.723 108.474 14.9909 107.6 14.9921H100.885V22.6223H112.167C113.017 22.6223 113.649 22.8901 114.063 23.4258C114.476 23.9615 114.684 24.8001 114.685 25.9414H99.1073C98.8635 25.9459 98.6214 25.9023 98.3958 25.8133C98.1703 25.7243 97.9662 25.5918 97.7962 25.4241C97.6216 25.2589 97.4839 25.0614 97.3916 24.8434C97.2992 24.6255 97.2542 24.3917 97.2592 24.1565V2.74672Z" fill="#FFFCFC"/>
</svg>
