<svg width="47" height="42" viewBox="0 0 47 42" fill="none" xmlns="http://www.w3.org/2000/svg">
<path d="M0.314941 27.7344V14.8882C3.13119 14.89 5.91524 15.4632 8.48462 16.5701C11.054 17.677 13.3507 19.2927 15.2242 21.3113C13.3538 23.3335 11.0577 24.9516 8.48761 26.0589C5.91752 27.1661 3.13196 27.7372 0.314941 27.7344Z" fill="#BF021F"/>
<path d="M0.314941 12.1307L6.09642 0.555569C9.15481 1.97105 11.7861 4.11277 13.7409 6.77779C14.6067 7.95575 15.3328 9.22286 15.9057 10.5556C16.1922 11.2166 16.4396 11.8926 16.6464 12.5805C15.961 12.8555 15.2599 13.0929 14.5464 13.2916C9.81679 14.6123 4.74465 14.1986 0.314941 12.1307Z" fill="#BF021F"/>
<path d="M7.14827 41.3378L0.314941 30.3156C2.2632 29.1932 4.39704 28.399 6.6242 27.9671C9.91923 27.3326 13.3276 27.5044 16.5353 28.4667C16.3947 29.1693 16.2129 29.8637 15.9909 30.5467C15.5434 31.923 14.9378 33.2473 14.1853 34.4951C12.485 37.3151 10.0628 39.6716 7.14827 41.3414V41.3378Z" fill="#BF021F"/>
<path d="M46.9818 14.8435V27.6897C44.1655 27.6879 41.3815 27.1147 38.8121 26.0078C36.2427 24.9009 33.946 23.2852 32.0725 21.2666C33.9432 19.2448 36.2394 17.6269 38.8094 16.5197C41.3794 15.4125 44.1648 14.8412 46.9818 14.8435Z" fill="#BF021F"/>
<path d="M41.2074 0.555569L46.9814 12.1307C42.5515 14.1903 37.4834 14.5995 32.7574 13.2791C32.0432 13.0808 31.3414 12.8434 30.6555 12.568C31.2806 10.4955 32.2634 8.53824 33.5629 6.77779C35.5177 4.11277 38.149 1.97105 41.2074 0.555569Z" fill="#BF021F"/>
<path d="M46.9815 30.4221L40.1556 41.4443C38.2039 40.324 36.4654 38.8926 35.0148 37.2114C34.308 36.3923 33.6743 35.5175 33.1204 34.5963C32.3657 33.3496 31.7601 32.025 31.3148 30.6479C31.0888 29.9658 30.9033 29.2719 30.7593 28.5696C31.468 28.3529 32.1889 28.1748 32.9185 28.0363C34.3887 27.7613 35.8863 27.6456 37.3834 27.6914C40.773 27.8008 44.0771 28.7408 46.9815 30.4221Z" fill="#BF021F"/>
<path d="M30.3148 21.311C30.3169 23.4986 29.9318 25.6705 29.1759 27.7342C28.808 28.7377 28.3534 29.71 27.8166 30.6408C27.0913 31.9018 26.2217 33.0813 25.224 34.1573C24.7295 34.6907 24.2039 35.197 23.65 35.6737C23.096 35.197 22.5705 34.6907 22.0759 34.1573C21.0776 33.0817 20.208 31.9022 19.4833 30.6408C18.9466 29.71 18.4919 28.7377 18.124 27.7342C16.6025 23.5766 16.6025 19.0454 18.124 14.8879C18.4919 13.8844 18.9466 12.9121 19.4833 11.9813C20.208 10.7199 21.0776 9.54035 22.0759 8.46483C22.5701 7.93384 23.095 7.42993 23.6481 6.95549C24.2021 7.43218 24.7276 7.93847 25.2222 8.47194C26.2199 9.54793 27.0894 10.7274 27.8148 11.9884C28.3515 12.9192 28.8062 13.8915 29.1741 14.895C29.9299 16.9563 30.3157 19.1258 30.3148 21.311Z" fill="#BF021F"/>
</svg>
