<svg width="115" height="27" viewBox="0 0 115 27" fill="none" xmlns="http://www.w3.org/2000/svg">
<path d="M0.904036 2.74657C0.894117 2.51056 0.935235 2.27514 1.02479 2.05514C1.11434 1.83514 1.25039 1.63533 1.42437 1.46831C1.59835 1.30129 1.80648 1.17068 2.03565 1.08471C2.26482 0.998738 2.51005 0.959268 2.75589 0.96879H11.9077C14.146 0.96879 15.9201 1.64079 17.23 2.98479C18.5398 4.32879 19.1942 6.15457 19.1929 8.46212C19.1929 11.2698 18.0627 13.2443 15.8022 14.3857V14.4923C16.76 14.9439 17.551 15.666 18.0689 16.5617C18.5948 17.4672 18.8577 18.5617 18.8577 19.8452V23.2355C18.8577 24.2097 18.5491 24.9587 17.9318 25.4826C17.3145 26.0064 16.4281 26.2678 15.2726 26.2666V20.0532C15.2726 17.3427 14.1645 15.9869 11.9485 15.9857H4.46145V23.2301C4.46145 25.2521 3.27564 26.263 0.904036 26.263V2.74657ZM11.7485 12.7021C12.9337 12.7021 13.8676 12.3217 14.5503 11.5608C15.233 10.7999 15.575 9.75338 15.5763 8.42123C15.5763 7.06538 15.2516 6.03605 14.6022 5.33323C13.9528 4.63042 13.0016 4.27961 11.7485 4.28079H4.46145V12.7021H11.7485Z" fill="#110C0D"/>
<path d="M28.6187 25.1021C27.1693 24.3651 25.9605 23.2576 25.1261 21.9021C24.2859 20.5422 23.8504 18.9871 23.8669 17.406V9.40605C23.8467 7.83579 24.2828 6.2912 25.1261 4.94561C25.9708 3.60836 27.178 2.51646 28.6187 1.78649C30.1729 1.02461 31.8931 0.627369 33.6382 0.627369C35.3832 0.627369 37.1035 1.02461 38.6576 1.78649C40.1007 2.51852 41.3122 3.60966 42.165 4.94561C43.0191 6.28753 43.4614 7.83359 43.441 9.40605V17.406C43.4584 18.9893 43.0166 20.546 42.165 21.9021C41.3222 23.2561 40.1092 24.3628 38.6576 25.1021C37.1038 25.8651 35.3835 26.2629 33.6382 26.2629C31.8929 26.2629 30.1725 25.8651 28.6187 25.1021ZM38.2206 21.4096C39.3317 20.4105 39.8873 19.0665 39.8873 17.3776V9.49138C39.8873 7.8025 39.3317 6.45849 38.2206 5.45938C37.1095 4.46027 35.5817 3.96072 33.6373 3.96072C31.6916 3.96072 30.1644 4.46027 29.0558 5.45938C27.9471 6.45849 27.3916 7.8025 27.3891 9.49138V17.3776C27.3891 19.0665 27.9447 20.4105 29.0558 21.4096C30.1669 22.4087 31.694 22.9083 33.6373 22.9083C35.5854 22.9083 37.1132 22.4087 38.2206 21.4096Z" fill="#110C0D"/>
<path d="M52.9095 25.0845C51.4834 24.3275 50.2995 23.2113 49.4854 21.8561C48.6459 20.4506 48.2167 18.8538 48.2428 17.2339V3.67476C48.2428 2.70054 48.5564 1.95151 49.1836 1.42765C49.8107 0.903802 50.7058 0.641876 51.8687 0.641876V17.2339C51.8687 18.924 52.4113 20.2869 53.4965 21.3228C54.5817 22.3586 56.02 22.876 57.8113 22.8748C59.6015 22.8748 61.0397 22.3574 62.1262 21.3228C63.2126 20.2881 63.7552 18.9251 63.7539 17.2339V3.67476C63.7539 2.67565 64.0626 1.92069 64.6799 1.40987C65.2971 0.89906 66.1978 0.643061 67.3817 0.641876V17.2339C67.4053 18.8592 66.9763 20.461 66.1391 21.8739C65.3319 23.2341 64.1463 24.352 62.715 25.1023C61.212 25.889 59.523 26.29 57.8113 26.2668C56.098 26.2898 54.4081 25.8823 52.9095 25.0845Z" fill="#110C0D"/>
<path d="M80.8429 25.0222L72.2151 0.999054C72.4521 0.890592 72.7004 0.806569 72.9558 0.748389C73.2077 0.682484 73.4671 0.646657 73.7281 0.641722C74.3591 0.622852 74.9788 0.80473 75.491 1.15906C75.9845 1.52769 76.3495 2.03181 76.5373 2.60439L82.3799 19.9111L81.7077 21.8666L82.0114 21.9733L88.5744 2.60439C88.7672 2.02713 89.1426 1.52192 89.6484 1.15906C90.1676 0.806136 90.7921 0.624589 91.4281 0.641722C91.9624 0.660517 92.4874 0.781391 92.9725 0.997277L84.3355 25.0222C84.2245 25.3944 83.9881 25.7208 83.6632 25.9502C83.3384 26.1689 82.9488 26.2817 82.5521 26.2719C81.725 26.2684 81.1552 25.8518 80.8429 25.0222Z" fill="#110C0D"/>
<path d="M97.2594 2.74672C97.2574 2.51273 97.304 2.28071 97.3963 2.06416C97.4887 1.84762 97.625 1.65088 97.7974 1.48542C97.9698 1.31996 98.1747 1.18908 98.4003 1.10041C98.6258 1.01174 98.8675 0.96705 99.1113 0.968945H114.017C114.017 2.11028 113.81 2.9488 113.396 3.4845C112.983 4.02021 112.339 4.28746 111.465 4.28628H100.885V11.6729H110.119C110.119 12.8155 109.917 13.654 109.515 14.1885C109.112 14.723 108.474 14.9909 107.6 14.9921H100.885V22.6223H112.167C113.017 22.6223 113.65 22.8901 114.063 23.4258C114.477 23.9615 114.684 24.8001 114.685 25.9414H99.1076C98.8638 25.9459 98.6216 25.9023 98.3961 25.8133C98.1706 25.7243 97.9665 25.5918 97.7964 25.4241C97.6218 25.2589 97.4841 25.0614 97.3918 24.8434C97.2995 24.6255 97.2544 24.3917 97.2594 24.1565V2.74672Z" fill="#110C0D"/>
</svg>
