<svg width="130" height="118" viewBox="0 0 130 118" fill="none" xmlns="http://www.w3.org/2000/svg">
<path d="M32.8 -1.06096e-05L45.2 9.19999C42.2667 12.6667 39.0667 18 35.6 25.2C32.4 32.1333 29.7333 39.7333 27.6 48C25.4667 56.2667 24.6667 64.4 25.2 72.4C27.0667 71.8667 28.6667 71.4667 30 71.2C31.6 70.6667 33.2 70.4 34.8 70.4C40.6667 70.4 45.6 72.4 49.6 76.4C53.8667 80.1333 56 85.4667 56 92.4C56 100.133 53.7333 106.4 49.2 111.2C44.6667 115.733 38.9333 118 32 118C21.8667 118 14.1333 114.267 8.8 106.8C3.46667 99.3333 0.8 90.2667 0.8 79.6C0.8 72.1333 2 63.7333 4.4 54.4C7.06667 44.8 10.8 35.2 15.6 25.6C20.4 15.7333 26.1333 7.19999 32.8 -1.06096e-05ZM106.4 -1.06096e-05L118.8 9.19999C115.867 12.6667 112.667 18 109.2 25.2C106 32.1333 103.333 39.7333 101.2 48C99.0667 56.2667 98.2667 64.4 98.8 72.4C100.667 71.8667 102.267 71.4667 103.6 71.2C105.2 70.6667 106.8 70.4 108.4 70.4C114.267 70.4 119.2 72.4 123.2 76.4C127.467 80.1333 129.6 85.4667 129.6 92.4C129.6 100.133 127.333 106.4 122.8 111.2C118.267 115.733 112.533 118 105.6 118C95.4667 118 87.7333 114.267 82.4 106.8C77.0667 99.3333 74.4 90.2667 74.4 79.6C74.4 72.1333 75.6 63.7333 78 54.4C80.6667 44.8 84.4 35.2 89.2 25.6C94 15.7333 99.7333 7.19999 106.4 -1.06096e-05Z" fill="#E4E4E4"/>
</svg>
